<svg width="42" height="34" xmlns="http://www.w3.org/2000/svg" fill="none"><defs><clipPath id="a"><path fill="#fff" d="M0 0h50v50H0z"/></clipPath></defs><g clip-path="url(#a)"><path fill="#2A7AE4" d="M40.956 25.52L38.685 9.564c-.583-4.105-4.104-7.146-8.25-7.146H11.563c-4.146 0-7.667 3.041-8.25 7.146L1.042 25.52a5.302 5.302 0 005.249 6.062 5.28 5.28 0 003.75-1.562l4.708-4.688h12.5l4.686 4.688c1 1 2.354 1.562 3.75 1.562a5.306 5.306 0 005.27-6.062zm-22.04-10.603h-4.167v4.166h-2.083v-4.166H8.499v-2.084h4.167V8.667h2.083v4.166h4.166v2.084zm8.332-2.084a2.09 2.09 0 01-2.083-2.083 2.09 2.09 0 012.083-2.083 2.09 2.09 0 012.083 2.083 2.09 2.09 0 01-2.083 2.083zm4.167 6.25A2.09 2.09 0 0129.33 17a2.09 2.09 0 012.084-2.083A2.09 2.09 0 0133.498 17a2.09 2.09 0 01-2.083 2.083z"/></g></svg>